<?xml version="1.0" encoding="UTF-8"?>
<svg width="20px" height="20px" viewBox="0 0 20 20" version="1.1" xmlns="http://www.w3.org/2000/svg" xmlns:xlink="http://www.w3.org/1999/xlink">
    <title>20*20</title>
    <g id="20*20" stroke="none" stroke-width="1" fill="none" fill-rule="evenodd">
        <g id="automizely-marketing" transform="translate(1.000000, 2.000000)" fill-rule="nonzero">
            <g id="automizely-marketing_glyph" transform="translate(0.308594, 0.812500)">
                <ellipse id="椭圆形备份" fill="#FDCD47" cx="2.77271855" cy="12.7705018" rx="1.57298457" ry="1.59964532"></ellipse>
                <circle id="椭圆形备份" fill="#FF2368" cx="2.15952119" cy="12.2906082" r="1.59964532"></circle>
                <path d="M10.4243554,-3.33066908e-14 C14.2674051,-3.33066908e-14 17.3828125,3.11540738 17.3828125,6.95845715 C17.3828125,10.8015069 14.2674051,13.9169143 10.4243554,13.9169143 C8.71014563,13.9169143 7.14071102,13.2970584 5.92796344,12.2692586 L2.13286043,9.17129984 L2.13285164,9.16988096 C0.947784242,9.12777396 2.91433545e-14,8.15379898 2.91433545e-14,6.95845715 C2.91433545e-14,5.76311531 0.947784242,4.78914035 2.13285164,4.74703334 L2.13286043,4.74561445 L5.92796344,1.64765574 C7.14071102,0.619855891 8.71014563,-3.33066908e-14 10.4243554,-3.33066908e-14 Z" id="形状结合" fill="#FF2368"></path>
                <circle id="椭圆形" fill="#FFFFFF" cx="10.4243554" cy="6.95845715" r="5.38547258"></circle>
                <path d="M13.6503068,6.45190279 C13.9447933,6.45190279 14.1835219,6.69063133 14.1835219,6.98511791 L14.1835219,6.98511791 C14.1835219,9.04652391 12.5124221,10.7176237 10.4510161,10.7176237 C8.39278701,10.7176237 6.72366207,9.05167074 6.71851035,6.99464586 C6.71851035,6.99146027 6.71851035,6.98829232 6.71851035,6.98511791 C6.71851035,6.69063133 6.95723889,6.45190279 7.25172547,6.45190279 C7.54621203,6.45190279 7.78494057,6.69063133 7.78494057,6.98511791 L7.78494057,6.98511791 C7.78494057,8.45755076 8.97858324,9.65119344 10.4510161,9.65119344 C11.923449,9.65119344 13.1170916,8.45755076 13.1170916,6.98511791 L13.1171631,6.97630021 C13.1218718,6.68588064 13.358765,6.45190279 13.6503068,6.45190279 Z" id="形状结合" fill="#FF2368"></path>
            </g>
        </g>
    </g>
</svg>