<?xml version="1.0" encoding="UTF-8"?>
<svg width="2935px" height="270px" viewBox="0 0 2935 270" version="1.1" xmlns="http://www.w3.org/2000/svg" xmlns:xlink="http://www.w3.org/1999/xlink">
    <title>automizely marketing_logo_main</title>
    <g id="页面-1" stroke="none" stroke-width="1" fill="none" fill-rule="evenodd">
        <g id="automizely-marketing_logo_main" transform="translate(-152.000000, -201.000000)">
            <g transform="translate(152.870267, 201.000000)">
                <path d="M1600.64706,74 L1600.64706,154.202346 C1600.64706,165.82997 1603.78277,174.216983 1610.0543,179.363636 C1616.32582,184.51029 1624.02258,187.083578 1633.1448,187.083578 C1644.73761,187.083578 1653.33708,183.843141 1658.94344,177.36217 C1664.5498,170.881199 1667.35294,162.208265 1667.35294,151.343109 L1667.35294,74 L1697,74 L1697,207.09824 C1697,217.772781 1694.90952,226.922249 1690.72851,234.546921 C1686.54749,242.171592 1681.3213,248.461852 1675.04977,253.417889 C1668.77825,258.373925 1661.9842,262.043243 1654.66742,264.425953 C1647.35064,266.808663 1640.46157,268 1634,268 C1626.20811,268 1619.41406,267.332851 1613.61765,265.998534 C1607.82124,264.664216 1602.64256,262.758077 1598.08145,260.280059 C1593.52034,257.80204 1589.48192,254.895178 1585.96606,251.559384 C1582.45021,248.22359 1578.98192,244.649579 1575.56109,240.837243 L1600.64706,225.397361 C1605.39821,229.972164 1610.24432,233.546175 1615.18552,236.119501 C1620.12672,238.692828 1625.82802,239.979472 1632.28959,239.979472 C1637.23079,239.979472 1641.93437,239.217016 1646.40045,237.692082 C1650.86654,236.167148 1654.76243,233.927434 1658.08824,230.972874 C1661.41404,228.018314 1664.07465,224.253689 1666.07014,219.678886 C1668.06562,215.104083 1669.06335,209.766893 1669.06335,203.667155 L1669.06335,196.233138 L1668.49321,196.233138 C1662.60178,202.904725 1656.5679,207.717727 1650.3914,210.672287 C1644.2149,213.626848 1636.37561,215.104106 1626.8733,215.104106 C1619.08141,215.104106 1611.81225,213.674501 1605.06561,210.815249 C1598.31897,207.955997 1592.42763,203.905451 1587.3914,198.66349 C1582.35518,193.421528 1578.36427,186.940654 1575.41855,179.220674 C1572.47284,171.500695 1571,162.780107 1571,153.058651 L1571,74 L1600.64706,74 Z M2861.96786,69.2765928 C2871.30482,69.2765928 2879.59364,70.9850849 2886.83455,74.4021203 C2894.07546,77.8191557 2900.17298,82.7547995 2905.12729,89.2091997 L2905.69894,89.2091997 L2905.69894,72.9783627 L2933.70969,72.9783627 L2933.70969,195.421519 C2933.70969,206.811637 2931.70894,216.967673 2927.70739,225.889932 C2923.70583,234.812191 2918.32286,242.310573 2911.55833,248.385303 C2904.79379,254.460032 2897.07662,259.110927 2888.40658,262.338128 C2879.73654,265.565328 2870.73317,267.178904 2861.39621,267.178904 C2851.67814,267.178904 2841.53149,265.043288 2830.95595,260.771994 C2820.38041,256.5007 2811.09122,249.524357 2803.0881,239.842757 L2827.38315,222.188162 C2830.2414,226.174704 2834.62399,230.018811 2840.53105,233.720599 C2846.43811,237.422388 2852.91673,239.273254 2859.96709,239.273254 C2867.5891,239.273254 2874.25826,238.134259 2879.97477,235.856236 C2885.69128,233.578212 2890.45497,230.540893 2894.26597,226.744187 C2898.07698,222.947481 2900.93519,218.628793 2902.84069,213.787992 C2904.7462,208.947192 2905.69894,203.869174 2905.69894,198.553786 L2905.69894,189.441737 C2899.41077,196.465643 2892.55107,201.780952 2885.1196,205.387822 C2877.68814,208.994693 2868.82769,210.798101 2858.53797,210.798101 C2849.5821,210.798101 2841.0551,209.184526 2832.95672,205.957325 C2824.85833,202.730125 2817.7128,198.07923 2811.51991,192.004501 C2805.32703,185.929771 2800.42043,178.526305 2796.79997,169.793882 C2793.17952,161.061458 2791.36932,151.285086 2791.36932,140.464474 C2791.36932,129.074356 2793.32243,118.965778 2797.22871,110.138437 C2801.13499,101.311095 2806.32741,93.8601716 2812.80612,87.785442 C2819.28483,81.7107124 2826.81146,77.1072755 2835.38622,73.974993 C2843.96098,70.8427106 2852.82144,69.2765928 2861.96786,69.2765928 Z M600.117647,74 L600.117647,153.871127 C600.117647,159.138054 600.986417,163.917232 602.723982,168.208803 C604.461547,172.500373 606.874796,176.255442 609.963801,179.47412 C613.052806,182.692798 616.672679,185.179921 620.823529,186.935563 C624.97438,188.691206 629.366493,189.569014 634,189.569014 C638.633507,189.569014 643.02562,188.691206 647.176471,186.935563 C651.327321,185.179921 654.947194,182.692798 658.036199,179.47412 C661.125204,176.255442 663.538453,172.500373 665.276018,168.208803 C667.013583,163.917232 667.882353,159.138054 667.882353,153.871127 L667.882353,74 L698,74 L698,156.504577 C698,166.453219 696.214196,175.377601 692.642534,183.277993 C689.070872,191.178385 684.340904,197.810713 678.452489,203.175176 C672.564073,208.539639 665.758711,212.684845 658.036199,215.610915 C650.313687,218.536986 642.301701,220 634,220 C625.698299,220 617.686313,218.536986 609.963801,215.610915 C602.241289,212.684845 595.435927,208.539639 589.547511,203.175176 C583.659096,197.810713 578.929128,191.178385 575.357466,183.277993 C571.785804,175.377601 570,166.453219 570,156.504577 L570,74 L600.117647,74 Z M477.485776,70 C498.78851,70 514.997112,79.2227979 522.869862,91.2124352 L523.332965,91.2124352 L523.332965,73.6891192 L553.897757,73.6891192 L553.897757,215.720207 L523.332965,215.720207 L523.332965,198.658031 L522.869862,198.658031 C513.1447,211.569948 495.54679,219.870466 476.096467,219.870466 C429.323072,219.870466 402,181.595855 402,144.704663 C402,109.658031 431.175484,70 477.485776,70 Z M1433.7275,70 C1463.36608,70 1507.82396,94.4404145 1507.82396,149.777202 L1507.82396,155.310881 L1389.26962,155.310881 C1391.12203,176.984456 1411.49856,192.663212 1432.80129,192.663212 C1449.473,192.663212 1463.36608,184.823834 1474.01745,170.528497 L1499.95121,185.284974 C1482.81641,206.958549 1459.19816,219.870466 1433.7275,219.870466 C1383.71238,219.870466 1355,182.518135 1355,144.704663 C1355,106.891192 1383.71238,70 1433.7275,70 Z M2250.23997,31.5949493 L2250.23997,129.803799 L2295.25236,74.7110296 L2332.97893,74.7110296 L2278.88422,142.978157 L2335.37427,219.628966 L2298.54595,219.628966 L2250.23997,159.146687 L2250.23997,219.628966 L2219.10058,219.628966 L2219.10058,31.5949493 L2250.23997,31.5949493 Z M2035.94285,69.920354 C2057.2042,69.920354 2073.38132,79.1252358 2081.23877,91.0915822 L2081.70098,91.0915822 L2081.70098,73.6023067 L2112.2064,73.6023067 L2112.2064,215.357487 L2081.70098,215.357487 L2081.70098,198.328456 L2081.23877,198.328456 C2071.5325,211.21529 2053.96878,219.499684 2034.55624,219.499684 C1987.87371,219.499684 1960.60371,181.299424 1960.60371,144.479897 C1960.60371,109.501346 1989.72252,69.920354 2035.94285,69.920354 Z M2414.44786,69.920354 C2444.02887,69.920354 2488.40039,94.3132909 2488.40039,149.542582 L2488.40039,155.065511 L2370.07634,155.065511 C2371.92516,176.696983 2392.2621,192.345283 2413.52345,192.345283 C2430.16277,192.345283 2444.02887,184.521133 2454.65955,170.253566 L2480.54293,184.981377 C2463.44141,206.612849 2439.86904,219.499684 2414.44786,219.499684 C2364.5299,219.499684 2335.8733,182.219913 2335.8733,144.479897 C2335.8733,106.739881 2364.5299,69.920354 2414.44786,69.920354 Z M878.5,69 C890.848376,69 901.922548,71.1568412 911.722846,75.4705882 C921.523145,79.7843353 929.755273,85.4215338 936.419476,92.3823529 C943.083679,99.3431721 948.179758,107.333288 951.707865,116.352941 C955.235973,125.372594 957,134.588188 957,144 C957,153.411812 955.235973,162.627406 951.707865,171.647059 C948.179758,180.666712 943.083679,188.656828 936.419476,195.617647 C929.755273,202.578466 921.523145,208.215665 911.722846,212.529412 C901.922548,216.843159 890.848376,219 878.5,219 C866.151624,219 855.077452,216.843159 845.277154,212.529412 C835.476855,208.215665 827.244727,202.578466 820.580524,195.617647 C813.916321,188.656828 808.820242,180.666712 805.292135,171.647059 C801.764027,162.627406 800,153.411812 800,144 C800,134.588188 801.764027,125.372594 805.292135,116.352941 C808.820242,107.333288 813.916321,99.3431721 820.580524,92.3823529 C827.244727,85.4215338 835.476855,79.7843353 845.277154,75.4705882 C855.077452,71.1568412 866.151624,69 878.5,69 Z M1109.90894,70 C1116.91494,70 1123.52977,71.2777429 1129.75928,73.8273406 C1135.98586,76.3798823 1141.43594,80.1100673 1146.10661,85.0149514 C1150.77728,89.9227796 1154.52257,95.9081514 1157.34541,102.974011 C1160.16532,110.03987 1161.5782,118.089062 1161.5782,127.115697 L1161.5782,216.322173 L1131.21886,216.322173 L1131.21886,127.410108 C1131.21886,118.775039 1128.88353,112.150796 1124.21286,107.537378 C1119.54219,102.926905 1114.09211,100.618724 1107.86552,100.618724 C1100.46835,100.618724 1094.38773,102.974011 1089.62073,107.684584 C1084.85081,112.395157 1082.46877,120.344249 1082.46877,131.53186 L1082.46877,216.322173 L1052.10943,216.322173 L1052.10943,131.53186 C1052.10943,120.344249 1049.72447,112.395157 1044.95747,107.684584 C1040.18463,102.974011 1034.10693,100.618724 1026.71268,100.618724 C1020.48025,100.618724 1015.03601,102.926905 1010.36534,107.537378 C1005.69467,112.150796 1003.35934,118.775039 1003.35934,127.410108 L1003.35934,216.322173 L973,216.322173 L973,127.115697 C973,118.089062 974.409958,110.03987 977.232792,102.974011 C980.052708,95.9081514 983.800918,89.9227796 988.471586,85.0149514 C993.142253,80.1100673 998.589419,76.3798823 1004.81892,73.8273406 C1011.04551,71.2777429 1017.66326,70 1024.66926,70 C1035.37093,70 1044.41742,72.3552865 1051.81751,77.0658595 C1059.21176,81.7764325 1064.26776,87.8619039 1066.99718,95.3193298 L1067.58102,95.3193298 C1070.3046,87.8619039 1075.36352,81.7764325 1082.76068,77.0658595 C1090.15202,72.3552865 1099.20435,70 1109.90894,70 Z M2186.05277,69.920354 C2192.98582,69.920354 2198.53226,71.7613304 2202.69209,74.5227949 L2191.59921,104.898905 C2188.82599,102.597685 2183.27955,100.756708 2180.04413,100.756708 C2168.95125,100.756708 2158.78278,109.041102 2158.78278,122.388181 L2158.78278,216.277975 L2128.27736,216.277975 L2128.27736,73.6023067 L2157.39617,73.6023067 L2157.39617,89.2506059 L2157.85837,89.2506059 C2162.94261,77.7445036 2173.57328,69.920354 2186.05277,69.920354 Z M1211.56479,74 L1211.56479,216.031088 L1181,216.031088 L1181,74 L1211.56479,74 Z M1554.56479,29 L1554.56479,216.031088 L1524,216.031088 L1524,29 L1554.56479,29 Z M1350,74 L1280.30637,187.247934 L1348.22059,187.247934 L1348.22059,216 L1229,216 L1298.39706,102.752066 L1234.93137,102.752066 L1234.93137,74 L1350,74 Z M1893.64298,69.920354 C1900.63537,69.920354 1907.23736,71.1956148 1913.45476,73.7402596 C1919.66925,76.2878428 1925.10874,80.0107816 1929.77034,84.9061376 C1934.43193,89.8044319 1938.16995,95.7781766 1940.9873,102.83031 C1943.80174,109.882443 1945.21187,117.915999 1945.21187,126.925099 L1945.21187,215.958284 L1914.91151,215.958284 L1914.91151,127.218938 C1914.91151,118.600643 1912.58071,111.989268 1907.91911,107.384813 C1903.25752,102.783296 1897.81802,100.479599 1891.60353,100.479599 C1884.22073,100.479599 1878.15192,102.83031 1873.39418,107.531732 C1868.63353,112.233155 1866.25612,120.166805 1866.25612,131.332683 L1866.25612,215.958284 L1835.95575,215.958284 L1835.95575,131.332683 C1835.95575,120.166805 1833.57543,112.233155 1828.81769,107.531732 C1824.05412,102.83031 1817.98822,100.479599 1810.60833,100.479599 C1804.38802,100.479599 1798.95435,102.783296 1794.29275,107.384813 C1789.63116,111.989268 1787.30036,118.600643 1787.30036,127.218938 L1787.30036,215.958284 L1757,215.958284 L1757,126.925099 C1757,117.915999 1758.40722,109.882443 1761.22457,102.83031 C1764.03901,95.7781766 1767.77994,89.8044319 1772.44153,84.9061376 C1777.10313,80.0107816 1782.53971,76.2878428 1788.75711,73.7402596 C1794.9716,71.1956148 1801.5765,69.920354 1808.56889,69.920354 C1819.24976,69.920354 1828.27869,72.2710651 1835.6644,76.9724874 C1843.04429,81.6739097 1848.09047,87.7475597 1850.81458,95.1904988 L1851.39728,95.1904988 C1854.11558,87.7475597 1859.16467,81.6739097 1866.54747,76.9724874 C1873.92444,72.2710651 1882.95919,69.920354 1893.64298,69.920354 Z M2622.87947,73.7318489 L2622.87947,215.667764 L2592.37406,215.667764 L2592.37406,73.7318489 L2622.87947,73.7318489 Z M2719.70775,69.920354 C2727.08608,69.920354 2734.12652,71.3863136 2740.82615,74.3182327 C2747.52578,77.2501519 2753.35154,81.4046814 2758.30344,86.7788892 C2763.25534,92.1560289 2767.18774,98.5065658 2770.10062,105.836364 C2773.0135,113.166162 2774.46994,121.228939 2774.46994,130.024697 L2774.46994,215.636736 L2744.17596,215.636736 L2744.17596,136.768111 C2744.17596,123.867667 2741.11744,114.585211 2735.00038,108.914879 C2728.88333,103.247479 2720.77095,100.412313 2710.68073,100.412313 C2700.77401,100.412313 2692.51891,103.443918 2685.92123,109.501263 C2679.31481,115.56154 2676.01451,124.45405 2676.01451,136.181727 L2676.01451,215.667764 L2645.72054,215.667764 L2645.72054,73.7318489 L2676.01451,73.7318489 L2676.01451,91.6165558 L2676.6,91.6165558 C2680.86738,84.972827 2686.69314,79.6953725 2694.0773,75.7841923 C2701.45272,71.8759441 2709.9962,69.920354 2719.70775,69.920354 Z M762.500566,31.2020725 L762.500566,73.626943 L784.266403,73.626943 L784.266403,102.217617 L762.500566,102.217617 L762.500566,215.658031 L731.935773,215.658031 L731.935773,102.217617 L714.337862,102.217617 L714.337862,73.626943 L731.935773,73.626943 L731.935773,31.2020725 L762.500566,31.2020725 Z M2552.61415,31.1977948 L2552.61415,73.5402513 L2574.3377,73.5402513 L2574.3377,102.075385 L2552.61415,102.075385 L2552.61415,215.295432 L2522.10873,215.295432 L2522.10873,102.075385 L2504.545,102.075385 L2504.545,73.5402513 L2522.10873,73.5402513 L2522.10873,31.1977948 L2552.61415,31.1977948 Z M479.80129,98.5284974 C454.793733,98.5284974 434.417204,119.279793 434.417204,144.642487 C434.417204,170.005181 454.793733,190.756477 479.80129,190.756477 C503.882642,190.756477 524.722273,170.005181 524.722273,144.642487 C524.722273,119.279793 503.882642,98.5284974 479.80129,98.5284974 Z M2038.25387,98.3934323 C2013.29489,98.3934323 1992.95794,119.104417 1992.95794,144.417842 C1992.95794,169.731267 2013.29489,190.442251 2038.25387,190.442251 C2062.28844,190.442251 2083.08759,169.731267 2083.08759,144.417842 C2083.08759,119.104417 2062.28844,98.3934323 2038.25387,98.3934323 Z M878.5,97.8235294 C871.835797,97.8235294 865.661701,99.0490074 859.977528,101.5 C854.293355,103.950993 849.393279,107.235274 845.277154,111.352941 C841.161028,115.470609 837.975979,120.323501 835.72191,125.911765 C833.467841,131.500028 832.340824,137.529379 832.340824,144 C832.340824,150.470621 833.467841,156.499972 835.72191,162.088235 C837.975979,167.676499 841.161028,172.529391 845.277154,176.647059 C849.393279,180.764726 854.293355,184.049007 859.977528,186.5 C865.661701,188.950993 871.835797,190.176471 878.5,190.176471 C885.164203,190.176471 891.338299,188.950993 897.022472,186.5 C902.706645,184.049007 907.606721,180.764726 911.722846,176.647059 C915.838972,172.529391 919.024021,167.676499 921.27809,162.088235 C923.532159,156.499972 924.659176,150.470621 924.659176,144 C924.659176,137.529379 923.532159,131.500028 921.27809,125.911765 C919.024021,120.323501 915.838972,115.470609 911.722846,111.352941 C907.606721,107.235274 902.706645,103.950993 897.022472,101.5 C891.338299,99.0490074 885.164203,97.8235294 878.5,97.8235294 Z M2863.55658,97.1295106 C2857.88925,97.1295106 2852.50537,98.2593956 2847.40477,100.5192 C2842.30417,102.779003 2837.91206,105.79203 2834.22829,109.55837 C2830.54453,113.32471 2827.61645,117.797171 2825.44397,122.975888 C2823.2715,128.154606 2822.18528,133.662795 2822.18528,139.500622 C2822.18528,145.526766 2823.17704,151.129112 2825.16061,156.307829 C2827.14417,161.486547 2829.93057,165.959008 2833.51988,169.725348 C2837.10919,173.491688 2841.45408,176.504714 2846.55468,178.764518 C2851.65527,181.024322 2857.32252,182.154207 2863.55658,182.154207 C2869.41282,182.154207 2874.84394,181.024322 2879.85008,178.764518 C2884.85622,176.504714 2889.20111,173.491688 2892.88487,169.725348 C2896.56864,165.959008 2899.40226,161.486547 2901.38583,156.307829 C2903.36939,151.129112 2904.36116,145.620923 2904.36116,139.783096 C2904.36116,133.945269 2903.27494,128.390001 2901.10246,123.117126 C2898.92999,117.84425 2896.00191,113.32471 2892.31814,109.55837 C2888.63438,105.79203 2884.33672,102.779003 2879.42503,100.5192 C2874.51334,98.2593956 2869.22391,97.1295106 2863.55658,97.1295106 Z M1428.74103,96.6839378 C1409.29071,96.6839378 1393.54521,108.673575 1388.45108,129.88601 L1470.8834,129.88601 C1464.39996,108.212435 1448.19135,96.6839378 1428.74103,96.6839378 Z M2410.46914,96.552456 C2391.0566,96.552456 2375.34169,108.518802 2370.25745,129.690031 L2452.52964,129.690031 C2446.05879,108.058558 2429.88168,96.552456 2410.46914,96.552456 Z M1196.13481,29 C1205.39687,29 1213.26962,36.8393782 1213.26962,46.0621762 C1213.26962,55.2849741 1205.39687,63.1243523 1196.13481,63.1243523 C1186.87275,63.1243523 1179,55.2849741 1179,46.0621762 C1179,36.3782383 1186.40965,29 1196.13481,29 Z M2607.47946,29 C2616.72353,29 2624.58099,36.8241496 2624.58099,46.0290314 C2624.58099,55.2339133 2616.72353,63.0580628 2607.47946,63.0580628 C2598.2354,63.0580628 2590.37794,55.2339133 2590.37794,46.0290314 C2590.37794,36.3639055 2597.77319,29 2607.47946,29 Z" id="automizely-marketing" fill="#000000"></path>
                <g id="编组-2">
                    <ellipse id="椭圆形备份" fill="#FDCD47" cx="52" cy="239.5" rx="29.5" ry="30"></ellipse>
                    <circle id="椭圆形备份" fill="#FF2368" cx="40.5" cy="230.5" r="30"></circle>
                    <path d="M195.5,-6.25277607e-13 C267.57316,-6.25277607e-13 326,58.4268402 326,130.5 C326,202.57316 267.57316,261 195.5,261 C163.336647,261 133.890928,249.364423 111.142563,230.072989 L40,172 L39.99895,171.973359 C17.7744228,171.183224 1.01607611e-12,152.917331 1.01607611e-12,130.5 C1.01607611e-12,108.082669 17.7744228,89.8167764 39.99895,89.0266414 L40,89 L111.143561,30.9261647 C133.891789,11.6352364 163.337117,-6.25277607e-13 195.5,-6.25277607e-13 Z" id="形状结合" fill="#FF2368"></path>
                    <circle id="椭圆形" fill="#FFFFFF" cx="195.5" cy="130.5" r="101"></circle>
                    <path d="M256,121 C261.522847,121 266,125.477153 266,131 L266,131 C266,169.659932 234.659932,201 196,201 C157.340068,201 126,169.659932 126,131 L126.003842,130.720095 C126.152068,125.326671 130.57076,121 136,121 C141.522847,121 146,125.477153 146,131 L146,131 C146,158.614237 168.385763,181 196,181 C223.614237,181 246,158.614237 246,131 L246.003842,130.720095 C246.152068,125.326671 250.57076,121 256,121 Z" id="形状结合" fill="#FF2368"></path>
                </g>
            </g>
        </g>
    </g>
</svg>